<svg xmlns="http://www.w3.org/2000/svg" viewBox="0 0 12 12" fill="currentColor"><path d="M5.431 5.01V4.934Q5.431 4.134 4.959 3.387Q4.685 2.953 4.685 2.466Q4.685 1.841 5.02 1.544Q5.37 1.232 5.747 1.232Q6.124 1.232 6.475 1.544Q6.81 1.841 6.81 2.466Q6.81 2.953 6.536 3.387Q6.064 4.149 6.064 4.934V5.01L6.163 5.048Q6.353 5.132 6.505 5.277L6.566 5.238Q7.275 4.812 7.678 4.05Q7.922 3.593 8.341 3.349Q8.714 3.136 9.042 3.136Q9.179 3.136 9.308 3.174Q9.75 3.327 9.941 3.654Q10.063 3.867 10.063 4.142Q10.063 4.279 10.032 4.431Q9.948 4.88 9.4 5.193Q9.011 5.414 8.539 5.414Q8.501 5.414 8.463 5.414Q8.402 5.414 8.333 5.414Q7.518 5.414 6.894 5.779L6.818 5.817Q6.84 5.939 6.84 6.061Q6.84 6.198 6.81 6.32L6.886 6.366Q7.518 6.739 8.333 6.739Q8.402 6.739 8.463 6.731Q8.501 6.731 8.539 6.731Q9.011 6.731 9.4 6.96Q9.948 7.272 10.032 7.714Q10.063 7.866 10.063 8.003Q10.063 8.278 9.941 8.499Q9.75 8.819 9.308 8.971Q9.179 9.009 9.042 9.009Q8.714 9.009 8.341 8.796Q7.922 8.552 7.678 8.095Q7.259 7.31 6.574 6.914L6.482 6.861Q6.315 7.021 6.163 7.074L6.064 7.112V7.211Q6.064 8.003 6.536 8.758Q6.81 9.192 6.81 9.679Q6.81 10.304 6.475 10.609Q6.124 10.913 5.747 10.913Q5.37 10.913 5.02 10.609Q4.685 10.304 4.685 9.679Q4.685 9.192 4.959 8.758Q5.439 8.003 5.439 7.211V7.112Q5.386 7.097 5.332 7.074Q5.157 6.998 5.012 6.861L4.921 6.914Q4.235 7.31 3.816 8.095Q3.573 8.552 3.154 8.796Q2.781 9.009 2.453 9.009Q2.316 9.009 2.186 8.971Q1.745 8.819 1.554 8.499Q1.432 8.278 1.432 8.003Q1.432 7.866 1.463 7.714Q1.547 7.272 2.095 6.96Q2.483 6.731 2.956 6.731Q2.994 6.731 3.032 6.731Q3.093 6.739 3.161 6.739Q3.984 6.739 4.609 6.373L4.685 6.328Q4.654 6.206 4.654 6.061Q4.654 5.939 4.677 5.817L4.601 5.779Q3.976 5.414 3.161 5.414Q3.093 5.414 3.032 5.414Q2.994 5.414 2.956 5.414Q2.483 5.414 2.095 5.193Q1.547 4.88 1.463 4.431Q1.432 4.279 1.432 4.142Q1.432 3.867 1.554 3.654Q1.745 3.327 2.186 3.174Q2.316 3.136 2.453 3.136Q2.781 3.136 3.154 3.349Q3.573 3.593 3.816 4.05Q4.251 4.865 4.921 5.231L4.99 5.269Q5.157 5.117 5.332 5.048Q5.386 5.025 5.431 5.01Z"/></svg>
